<?xml version="1.0" encoding="UTF-8"?> <svg xmlns="http://www.w3.org/2000/svg" width="66.131" height="44" viewBox="0 0 66.131 44"><g transform="translate(0 24.631)"><g transform="translate(0 0)"><path d="M77.211,350.094c-3.552,0-6.286-.875-8.36-2.676a9.772,9.772,0,0,1-.174-14.069c1.946-1.783,4.4-2.614,7.737-2.614a23.75,23.75,0,0,1,3.46.238c.441.058.837.136,1.219.211.4.08.769.152,1.107.185a.787.787,0,0,1,.8.777,2.827,2.827,0,0,1-.029.339c-.025.207-.061.5-.088.977-.022.37-.028.874-.034,1.318v.027c-.007.508-.012.948-.038,1.206-.041.656-.3.989-.777.989-.335,0-.735-.176-.735-1.015a2.815,2.815,0,0,0-.773-1.808,6.56,6.56,0,0,0-4.393-1.3,5.629,5.629,0,0,0-4.066,1.321c-1.358,1.246-1.991,3.056-1.991,5.7,0,5.346,4.1,7.837,6.876,7.837,2.181,0,3.166-.287,3.908-1.139a3.463,3.463,0,0,0,.686-1.327c.056-.3.16-.859.792-.859.328,0,.711.223.711.851a22.223,22.223,0,0,1-.536,3.255,1.3,1.3,0,0,1-.9,1,14.062,14.062,0,0,1-4.4.577Z" transform="translate(-65.776 -330.736)" fill="#fff"></path><g transform="translate(17.205 0.045)"><path d="M206.97,350.407c-.96,0-1.881-.027-2.622-.048l-.067,0h-.027c-.452-.013-.809-.023-1.041-.023s-.667.014-1.123.029h-.034c-.631.02-1.347.044-1.9.044-.914,0-.985-.568-.985-.742s.064-.695.887-.695a3.494,3.494,0,0,0,.766-.084c.138-.028.23-.293.316-.914.116-.98.116-2.886.116-5.094v-4.266c0-3.683,0-4.347-.047-5.107-.042-.724-.16-.822-.647-.925a4.5,4.5,0,0,0-.842-.062c-.823,0-.911-.5-.911-.719,0-.476.348-.718,1.033-.718.755,0,1.6.025,2.278.045.5.015.936.027,1.212.027.463,0,1.018-.016,1.644-.034l.071,0c.609-.018,1.24-.036,1.8-.036,3.233,0,4.45,1.141,4.849,1.517a4.7,4.7,0,0,1,1.37,3.249,6.2,6.2,0,0,1-6.462,6.365,3.464,3.464,0,0,1-.608-.035c-.6-.118-.693-.494-.693-.708,0-.767.887-.767,1.179-.767,1.121,0,2.748-1.363,2.748-3.5a4.142,4.142,0,0,0-1.262-3.262,3.1,3.1,0,0,0-2.092-.82,4.059,4.059,0,0,0-.639.039v9.715c0,2.208,0,4.115.117,5.128.079.738.218.832.516.872a10.032,10.032,0,0,0,1.169.091c.862,0,.888.624.888.695,0,.342-.252.742-.96.742Z" transform="translate(-198.811 -331.083)" fill="#fff"></path></g><g transform="translate(30.493 4.146)"><g transform="translate(0)"><path d="M316.258,378.017c-.649,0-2,0-3.466-.036l-.093-.005c-.307-.016-.944-.05-.944-.641a.615.615,0,0,1,.387-.584l-1.328-3.516-3.638.013-.907,2.436a3.137,3.137,0,0,0-.242.938.3.3,0,0,0,0,.051h0a1.744,1.744,0,0,0,.224.017h.274c.7,0,.775.452.775.646,0,.114-.039.683-.812.683-.295,0-.638-.014-.97-.027h-.034c-.356-.015-.672-.027-.933-.027-.057,0-.181,0-.35.011h-.034c-.415.016-1.11.042-1.773.042-.764,0-.847-.478-.847-.683a.647.647,0,0,1,.719-.646c.142,0,.376-.017.505-.032.506-.066.764-.365,1.152-1.335l4.588-11.478c.223-.538.433-1.045.976-1.045s.753.511.915.885c.189.432.833,2.048,1.579,3.919l.073.182c.933,2.343,2.212,5.553,2.883,7.145.656,1.556,1.082,1.657,1.264,1.7a3.473,3.473,0,0,0,.653.06c.7,0,.737.538.737.646,0,.683-.744.683-1.341.683Zm-8.339-6.684H310.1l-1.077-2.955-1.1,2.955Z" transform="translate(-301.556 -362.797)" fill="#fff"></path></g></g><g transform="translate(45.661 4.115)"><path d="M427.7,377.782c-1.036,0-1.843-.022-2.555-.041l-.138,0-.486-.012c-.9-.04-1.56-.055-2.277-.055-.2,0-.607,0-1.047.018-.237,0-.469.01-.691.019h-.026c-.213.009-.418.018-.6.018-.834,0-.876-.572-.876-.687s.039-.65.8-.65a2.524,2.524,0,0,0,.564-.063c.053-.037.108-.239.16-.613.088-.748.088-2.22.088-3.924v-3.3c0-2.846,0-3.359-.037-3.944-.03-.514-.1-.545-.41-.611a2.348,2.348,0,0,0-.516-.045c-.779,0-.819-.557-.819-.669,0-.25.119-.668.912-.668.493,0,1.071.018,1.581.033h.05c.385.012.722.022.937.022.2,0,.565-.011.979-.022.547-.016,1.156-.034,1.571-.034.806,0,.893.467.893.668,0,.157-.06.669-.838.669a4.528,4.528,0,0,0-.649.049c-.158.029-.245.046-.277.6-.037.587-.037,1.1-.037,3.946v3.3a12.941,12.941,0,0,0,.224,3.657c.195.171.6.286,1.939.286.923,0,1.505-.018,1.827-.365a1.879,1.879,0,0,0,.357-.836c.075-.659.517-.73.7-.73.242,0,.649.107.649.818a15.049,15.049,0,0,1-.3,2.289c-.214.787-.693.873-1.663.873Z" transform="translate(-418.842 -362.551)" fill="#fff"></path></g><g transform="translate(55.306 4.115)"><path d="M502.276,377.782c-1.034,0-1.841-.022-2.553-.041l-.136,0-.491-.012c-.9-.04-1.56-.055-2.277-.055-.2,0-.608,0-1.047.018-.238,0-.469.01-.692.019h-.026c-.213.009-.417.018-.6.018-.833,0-.875-.572-.875-.687s.039-.65.8-.65a2.522,2.522,0,0,0,.567-.063,1.4,1.4,0,0,0,.157-.613c.088-.748.088-2.22.088-3.924v-3.3c0-2.847,0-3.36-.036-3.944-.03-.513-.1-.545-.411-.611a2.342,2.342,0,0,0-.515-.045c-.78,0-.819-.557-.819-.669,0-.25.119-.668.912-.668.493,0,1.072.018,1.583.033h.048c.385.012.723.022.938.022.2,0,.565-.011.979-.023l.074,0c.515-.015,1.1-.031,1.5-.031.806,0,.894.467.894.668,0,.157-.061.669-.838.669a4.529,4.529,0,0,0-.648.049c-.158.029-.246.046-.278.6-.036.587-.036,1.1-.036,3.947v3.3a12.971,12.971,0,0,0,.223,3.657c.2.171.6.286,1.939.286.927,0,1.512-.024,1.828-.365a1.9,1.9,0,0,0,.356-.838c.071-.657.515-.729.7-.729.243,0,.651.107.651.818a15.1,15.1,0,0,1-.3,2.289c-.216.787-.7.873-1.664.873Z" transform="translate(-493.414 -362.551)" fill="#fff"></path></g></g></g><g transform="translate(15.16)"><g transform="translate(19.034 7.873)"><path d="M330.2,216.386l-.009,0a.026.026,0,0,1-.016-.028s1.049-6.224,1.181-6.993c.007-.037.014-.087.023-.145.771-5.032,3.674-6.087,5.973-6.087a8.1,8.1,0,0,1,1.174.09,33.608,33.608,0,0,0,4.545.459,4.585,4.585,0,0,0,4.045-1.742,2.246,2.246,0,0,0,.312-.763.027.027,0,0,1,.023-.021h0a.024.024,0,0,1,.024.017,4.989,4.989,0,0,1,.248.942c.091.8.419,4.838-1.865,7.453a6.95,6.95,0,0,1-5.507,2.2h-3a.245.245,0,0,1-.037,0s-.258-.027-.665-.027a6.927,6.927,0,0,0-3.486.833,5.83,5.83,0,0,0-1.766,1.96c-.3.461-1.164,1.829-1.172,1.842a.026.026,0,0,1-.022.012Z" transform="translate(-330.173 -201.153)" fill="#fff"></path></g><g transform="translate(0 5.199)"><path d="M200.856,201.824a.026.026,0,0,1-.025-.021s-.072-.39-.286-1.327c-.73-3.574-3.7-3.585-7.14-3.6-2.908-.011-6.2-.023-8.373-2.3-4.545-4.778-.083-12.62.109-12.952l.677-1.132a.025.025,0,0,1,.021-.013l.009,0a.025.025,0,0,1,.017.027c0,.012-.16,1.187-.15,1.417a4.848,4.848,0,0,0,.265,1.33,5.1,5.1,0,0,0,2.546,2.629,11.737,11.737,0,0,0,1.532.676,23.032,23.032,0,0,0,5.577,1.052l.676.072c2.1.227,4.974.86,5.779,3.721a6.925,6.925,0,0,1,.064,3.1c-.01.062-1.22,7-1.271,7.293a.026.026,0,0,1-.025.021Z" transform="translate(-182.997 -180.481)" fill="#fff"></path></g><g transform="translate(11.885)"><path d="M282.6,156.874a.025.025,0,0,1-.025-.019c0-.006-.153-.607-.292-1.043a5.887,5.887,0,0,0-1.671-2.744,8.362,8.362,0,0,0-1.81-1c-1.676-.765-3.572-1.63-3.868-4.255-.407-3.615,2.311-6.555,2.427-6.678.063-.066.768-.847.768-.847a.024.024,0,0,1,.019-.008.023.023,0,0,1,.012,0,.025.025,0,0,1,.013.028l-.226.978a2.38,2.38,0,0,0,.3,1.919,9.822,9.822,0,0,0,1.855,1.5,9.9,9.9,0,0,1,3.142,2.928,6.016,6.016,0,0,1,.288,3.942c-.337,2.007-.9,5.241-.91,5.273a.025.025,0,0,1-.024.021Z" transform="translate(-274.893 -140.279)" fill="#fff"></path></g></g><g transform="translate(0.5 1.091)"><g transform="translate(0 24.04)"><path d="M72.545,350.405a9.274,9.274,0,0,1-.164-13.323c1.686-1.545,3.911-2.482,7.4-2.482a23.186,23.186,0,0,1,3.4.234c.89.118,1.639.328,2.341.4.258.024.351.141.351.281,0,.187-.07.469-.117,1.288-.047.773-.023,2.061-.07,2.529-.024.351-.07.539-.281.539-.188,0-.234-.188-.234-.516a3.344,3.344,0,0,0-.913-2.154,6.984,6.984,0,0,0-4.754-1.451,6.106,6.106,0,0,0-4.4,1.451c-1.709,1.569-2.154,3.793-2.154,6.065,0,5.573,4.238,8.337,7.376,8.337,2.084,0,3.348-.234,4.285-1.312a3.918,3.918,0,0,0,.8-1.545c.07-.375.117-.468.3-.468.163,0,.21.164.21.351a22.228,22.228,0,0,1-.515,3.114.827.827,0,0,1-.609.679,13.569,13.569,0,0,1-4.214.539C77.369,352.958,74.676,352.256,72.545,350.405Z" transform="translate(-69.642 -334.6)" fill="#1c4ca0"></path><path d="M205.125,341.977c0-3.685,0-4.363-.049-5.138-.048-.824-.242-1.212-1.042-1.382a4.98,4.98,0,0,0-.946-.073c-.266,0-.412-.049-.412-.218s.17-.218.533-.218c1.284,0,2.812.073,3.49.073.994,0,2.4-.073,3.514-.073,3.03,0,4.121,1.018,4.508,1.381a4.213,4.213,0,0,1,1.212,2.885,5.7,5.7,0,0,1-5.962,5.865,3.591,3.591,0,0,1-.509-.024c-.121-.024-.291-.049-.291-.218,0-.194.17-.266.679-.266,1.357,0,3.248-1.527,3.248-4a4.661,4.661,0,0,0-1.43-3.635,3.6,3.6,0,0,0-2.424-.946,3.4,3.4,0,0,0-.945.1c-.121.048-.194.193-.194.46v9.695c0,2.23,0,4.145.122,5.187.073.679.218,1.212.945,1.31a10.343,10.343,0,0,0,1.236.1c.267,0,.388.073.388.195,0,.169-.194.242-.461.242-1.6,0-3.127-.073-3.757-.073-.557,0-2.084.073-3.054.073-.315,0-.485-.073-.485-.242,0-.121.1-.195.387-.195a4,4,0,0,0,.873-.1c.485-.1.606-.63.7-1.333.121-1.018.121-2.933.121-5.163Z" transform="translate(-185.472 -334.902)" fill="#1c4ca0"></path><path d="M310.319,376.111c-.092,0-.128.036-.165.146l-.987,2.614a3.54,3.54,0,0,0-.274,1.115c0,.329.165.566.731.566h.274c.219,0,.275.036.275.146,0,.146-.11.183-.311.183-.585,0-1.371-.055-1.937-.055-.2,0-1.206.055-2.157.055-.237,0-.347-.036-.347-.183,0-.11.074-.146.219-.146a5.573,5.573,0,0,0,.567-.037c.841-.109,1.188-.731,1.554-1.645l4.588-11.478c.219-.53.328-.731.511-.731.165,0,.274.164.457.585.439,1.005,3.363,8.463,4.534,11.241.694,1.645,1.224,1.9,1.608,1.992a4.016,4.016,0,0,0,.768.073c.146,0,.237.018.237.146,0,.146-.165.183-.841.183-.658,0-1.993,0-3.454-.036-.33-.019-.549-.019-.549-.146,0-.11.073-.146.256-.165a.3.3,0,0,0,.165-.42l-1.463-3.875a.175.175,0,0,0-.183-.128Zm3.729-.914c.091,0,.109-.055.091-.109l-1.645-4.515c-.019-.073-.037-.165-.092-.165s-.091.091-.11.165l-1.682,4.5c-.018.073,0,.128.073.128Z" transform="translate(-274.927 -362.515)" fill="#1c4ca0"></path><path d="M426.833,375.154c0,2.4,0,3.693.394,4.031.318.281.807.412,2.269.412.994,0,1.724-.018,2.193-.525a2.347,2.347,0,0,0,.487-1.125c.019-.169.056-.281.207-.281.13,0,.149.093.149.319a14.778,14.778,0,0,1-.281,2.156c-.112.412-.206.506-1.181.506-1.35,0-2.325-.038-3.168-.057-.844-.037-1.519-.056-2.288-.056-.206,0-.618,0-1.069.019-.431,0-.919.037-1.293.037-.244,0-.376-.056-.376-.187,0-.094.075-.15.3-.15a3.034,3.034,0,0,0,.674-.075c.376-.075.47-.487.545-1.032.094-.787.094-2.268.094-3.993v-3.3c0-2.85,0-3.375-.038-3.975-.038-.637-.187-.937-.805-1.069a2.77,2.77,0,0,0-.619-.056c-.207,0-.319-.038-.319-.169s.131-.168.412-.168c.882,0,2.063.056,2.569.056.45,0,1.818-.056,2.55-.056.263,0,.393.038.393.168s-.112.169-.337.169a4.936,4.936,0,0,0-.731.056c-.506.093-.656.413-.694,1.069-.038.6-.038,1.125-.038,3.975Z" transform="translate(-377.047 -362.301)" fill="#1c4ca0"></path><path d="M501.405,375.154c0,2.4,0,3.693.393,4.031.319.281.807.412,2.269.412.993,0,1.725-.018,2.194-.525a2.351,2.351,0,0,0,.487-1.125c.018-.169.056-.281.206-.281.131,0,.151.093.151.319a14.816,14.816,0,0,1-.282,2.156c-.113.412-.206.506-1.181.506-1.349,0-2.325-.038-3.169-.057-.843-.037-1.519-.056-2.288-.056-.2,0-.618,0-1.069.019-.431,0-.918.037-1.293.037-.244,0-.375-.056-.375-.187,0-.094.075-.15.3-.15a3.047,3.047,0,0,0,.675-.075c.376-.075.469-.487.544-1.032.093-.787.093-2.268.093-3.993v-3.3c0-2.85,0-3.375-.037-3.975-.038-.637-.188-.937-.806-1.069a2.764,2.764,0,0,0-.619-.056c-.207,0-.319-.038-.319-.169s.131-.168.413-.168c.881,0,2.062.056,2.569.056.45,0,1.819-.056,2.55-.056.263,0,.393.038.393.168s-.112.169-.338.169a4.929,4.929,0,0,0-.73.056c-.506.093-.657.413-.694,1.069-.038.6-.038,1.125-.038,3.975Z" transform="translate(-441.974 -362.301)" fill="#1c4ca0"></path></g><g transform="translate(15.01)"><path d="M334.374,221.822l.972-5.647s.528-6.767,6.776-5.849c5.158.758,7.1.772,8.906-1.4,0,0,1.264,9.316-7.1,9.264h-2.935a7.892,7.892,0,0,0-4.371.857A6.533,6.533,0,0,0,334.374,221.822Z" transform="translate(-315.147 -201.138)" fill="#01a7df"></path><path d="M203.2,209.213l.916-5.83a6.785,6.785,0,0,0-.072-3c-.709-2.523-3.105-3.239-5.423-3.49a26.479,26.479,0,0,1-6.333-1.142,12.127,12.127,0,0,1-1.577-.7A5.378,5.378,0,0,1,188,192.236c-.1-.31-.389-1.264-.212-1.569,0,0-4.58,7.892-.158,12.541C192.19,208,201.915,202.282,203.2,209.213Z" transform="translate(-185.705 -185.242)" fill="#ec1c24"></path><path d="M284.774,162.784s.336-1.865.68-3.913a5.691,5.691,0,0,0-.252-3.722c-.987-1.841-3.976-3.146-4.961-4.378a2.272,2.272,0,0,1-.367-2.053s-2.73,2.9-2.336,6.4,3.861,3.634,5.556,5.028A4.477,4.477,0,0,1,284.774,162.784Z" transform="translate(-265.627 -148.718)" fill="#38b14a"></path></g></g></svg> 